# xmcd
#
# Track frame offsets: 
#        150
#        21269
#        60067
#        92264
#        109709
#        141898
#        158241
#        175464
#        195287
#        227723
#        245771
#        266669
#
# Disc length: 3950 seconds
#
# Revision: 2
# Processed by: cddbd v1.5.2PL0 Copyright (c) Steve Scherf et al.
# Submitted via: ExactAudioCopy v1.0b3
#
DISCID=950f6c0c
DTITLE=Various Artist - TOKYO LUXURY LOUNGE DINNER TIME
DYEAR=2009
DGENRE=House
TTITLE0=Saiko - Never Die
TTITLE1=AK - Golden Lady
TTITLE2=Chieko Kinbara - Sweetest Day Of May (EK Dub Mix)
TTITLE3=MITOMI TOKOTO Presents ANJE - You Can Give (Radio Edit)
TTITLE4=macrophage lab. - My Silly Heart feat. Lisa Shaw (Piano Dub Mi
TTITLE4=x)
TTITLE5=NANASE - Free
TTITLE6=Hitomi Shimazaki - This Is Not A Love Song
TTITLE7=Miho Terachi - Mystic Voyage
TTITLE8=Monday Michiru - You Are The Universe
TTITLE9=COLDFEET - So Glad You're Here
TTITLE10=Dr.Echo-Logic - YAWNING CAT
TTITLE11=Sakura&Co. - Tears
EXTD=YEAR: 2009
EXTT0=
EXTT1=
EXTT2=
EXTT3=
EXTT4=
EXTT5=
EXTT6=
EXTT7=
EXTT8=
EXTT9=
EXTT10=
EXTT11=
PLAYORDER=
